inDegrees=no
num_controls=7
num_derivatives=13
num_iterations=180
num_multipliers=7
num_parameters=0
num_slacks=7
num_states=26
objective=5.999134
objective_accelerations=0.775951
objective_balance=0.016250
objective_effort=0.528687
objective_height=4.559236
objective_ligament=0.119011
solver_duration=1546.671457
status=Solve_Succeeded
success=true
DataType=double
version=3
OpenSimVersion=4.4-2022-07-23-0e9fedc
endheader
time	/jointset/ground_pelvis/pelvis_tilt/value	/jointset/ground_pelvis/pelvis_tx/value	/jointset/ground_pelvis/pelvis_ty/value	/jointset/hip_r/hip_flexion_r/value	/jointset/hip_r/hip_adduction_r/value	/jointset/hip_r/hip_rotation_r/value	/jointset/back/lumbar_extension/value	/jointset/patellofemoral_r/patellar_flexion_r/value	/jointset/knee_r/knee_flexion_r/value	/jointset/knee_r/knee_adduction_r/value	/jointset/knee_r/knee_rotation_r/value	/jointset/ankle_r/ankle_angle_r/value	/jointset/subtalar_r/subtalar_angle_r/value	/jointset/ground_pelvis/pelvis_tilt/speed	/jointset/ground_pelvis/pelvis_tx/speed	/jointset/ground_pelvis/pelvis_ty/speed	/jointset/hip_r/hip_flexion_r/speed	/jointset/hip_r/hip_adduction_r/speed	/jointset/hip_r/hip_rotation_r/speed	/jointset/back/lumbar_extension/speed	/jointset/patellofemoral_r/patellar_flexion_r/speed	/jointset/knee_r/knee_flexion_r/speed	/jointset/knee_r/knee_adduction_r/speed	/jointset/knee_r/knee_rotation_r/speed	/jointset/ankle_r/ankle_angle_r/speed	/jointset/subtalar_r/subtalar_angle_r/speed	/forceset/tau_hip_flexion_r	/forceset/tau_hip_adduction_r	/forceset/tau_hip_rotation_r	/forceset/tau_knee_flexion_r	/forceset/tau_ankle_angle_r	/forceset/tau_subtalar_angle_r	/forceset/tau_lumbar_extension	lambda_cid13_p0	lambda_cid14_p0	lambda_cid14_p1	lambda_cid14_p2	lambda_cid14_p3	lambda_cid14_p4	lambda_cid14_p5	/jointset/ground_pelvis/pelvis_tilt/accel	/jointset/ground_pelvis/pelvis_tx/accel	/jointset/ground_pelvis/pelvis_ty/accel	/jointset/hip_r/hip_flexion_r/accel	/jointset/hip_r/hip_adduction_r/accel	/jointset/hip_r/hip_rotation_r/accel	/jointset/back/lumbar_extension/accel	/jointset/patellofemoral_r/patellar_flexion_r/accel	/jointset/knee_r/knee_flexion_r/accel	/jointset/knee_r/knee_adduction_r/accel	/jointset/knee_r/knee_rotation_r/accel	/jointset/ankle_r/ankle_angle_r/accel	/jointset/subtalar_r/subtalar_angle_r/accel	gamma_cid13_p0	gamma_cid14_p0	gamma_cid14_p1	gamma_cid14_p2	gamma_cid14_p3	gamma_cid14_p4	gamma_cid14_p5
0	0.0006038525821727711	0.1275913952933257	0.9344465908567706	0.1934208783645156	-0.2149755525802173	-0.2430522366521242	-0.2903791543005566	0.2311793314021638	0.2311793314021609	0.1036674550387399	0.1667352209204247	0.08934340440958972	0.08027954390918379	0	0	0	0	0	0	0	0	0	0	0	0	0	0.122507123686299	-0.05676308960800154	-0.0003623246554242498	-0.251684144414602	0.1289695372173416	-0.06724533731768055	-0.04177258824020069	-29.65458743094179	-3.688835681281826	-25.78680215426387	-0.1087091226697375	3.943590548863015	-602.6398760741079	52.23296501094147	-2.493321549912802	-2.122288662334369	-1.024325665036444	11.66047336448728	-0.2506538901094303	2.394099126459384	-6.717436231345418	11.53981478866544	11.53981478866616	-2.516154148270533	0.5448091346905906	2.989034801927132	0.565855279357327	3.599491071465363e-08	1.925065835087034e-08	-2.862115994147581e-07	2.016409726184926e-07	1.164882371691703e-08	1.546734959970428e-07	-2.412222285480482e-07
0.01	0.0004865378604001772	0.1274866648908262	0.9343967743232148	0.1939883908178194	-0.2149866499490872	-0.2429319926191746	-0.2907173700878815	0.2317451684780437	0.2317451684780239	0.1035417975510056	0.1667584084188458	0.08949005998992093	0.08030875678172454	-0.02336764361016344	-0.02083584883456551	-0.009936543806123179	0.1129801704949638	-0.002228061401922559	0.02397899837583006	-0.06720353054018575	0.1126545724001377	0.1126545724001393	-0.02496241924711787	0.004575251003980013	0.02920774989877774	0.005795968610273586	0.1179379013764831	-0.06347881493074747	-3.920056744505056e-05	-0.2475214617401812	0.1222262452799077	-0.05944125346946074	-0.03764721221580798	-29.66134825941093	-5.460666693415188	-22.50407190115189	-0.8646855417039025	4.106636657628369	-604.2870771085625	58.70974994642896	-2.244193384011668	-2.047695914706164	-0.9742733679245444	11.03844036130658	-0.2101793642576789	2.389371740557542	-6.655867426350981	11.05134485066876	11.05134485066858	-2.460951644317045	0.4045865543896704	2.8681460845422	0.5794556297604103	4.976801163558514e-08	1.36711942842362e-09	-3.797700413466323e-07	2.218181431306631e-07	3.617727962094563e-08	1.106757075299326e-09	-2.865835474123388e-07
0.02	0.0001384051790288721	0.1271768834158431	0.9342484014256925	0.1956700352699347	-0.215020287351786	-0.2425740442929915	-0.2917144323728101	0.2334221645549027	0.2334221645549049	0.1031715827045703	0.1668254891215638	0.08992509326937449	0.08039452693594763	-0.04616359191804874	-0.04101021449671337	-0.01971127279327049	0.2228263997621485	-0.004508006764824264	0.04754085864816737	-0.1317692995201906	0.2222318001995091	0.2222318001995086	-0.04891147174962584	0.008778640853475838	0.05767553982511948	0.01131145633646968	0.1133686790667353	-0.07019454025344182	0.0002839235207040813	-0.2433587790657347	0.1154829533425009	-0.05163716962117172	-0.0335218361913858	-29.68101273909997	-7.142190626408517	-19.22143098747911	-1.602483365634675	4.296157797645561	-604.5000854050809	64.92224018340713	-2.378982489457045	-1.989992027850928	-0.9919627012412648	11.03368511893144	-0.2610306823052659	2.310671505760834	-6.189883919309134	10.9243458685122	10.92434586851217	-2.313480799348544	0.4704369037937638	2.841042807439836	0.5097591025417915	6.354111255651666e-08	-1.65164194940231e-08	-4.733284832785064e-07	2.419953136428336e-07	6.070573552497422e-08	-1.524599818464441e-07	-3.319448662766293e-07
0.03	-0.000435311716779032	0.126668769735269	0.9340027248105286	0.1984349294430531	-0.2150771021678186	-0.2419833736524092	-0.2933432288290815	0.2361796467737501	0.2361796467737625	0.1025672916845905	0.1669333861007375	0.09064111518198294	0.08053393093412739	-0.06848063347692615	-0.0604906600362284	-0.02942452389623766	0.3296096185931436	-0.006859442622484576	0.07048461473724274	-0.1935335197010234	0.328739746056046	0.3287397460560464	-0.0717683244199098	0.01274926237901009	0.08540836346042019	0.01653040619521646	0.1081330186047827	-0.06604892250749651	0.0005234402344591594	-0.2394906946805722	0.1116965761926507	-0.05214855631287042	-0.02899424406043852	-29.71256333743626	-8.366436895680417	-19.63245881100718	-1.565995046923186	4.275970964534616	-604.7126863055211	63.16370534136305	-2.143187964084179	-1.908779339680913	-0.9611084757818383	10.41921835697714	-0.2228939971806431	2.269984694202533	-6.101220262264978	10.43527155321256	10.43527155321275	-2.245077967102814	0.3527019947364067	2.721338008960335	0.5220772720651282	6.49764739495316e-08	-3.39206601023656e-08	-4.8165661400688e-07	1.988330759505215e-07	7.546408284123127e-08	-2.910235357983782e-07	-3.018904173004238e-07
0.04	-0.001229223623181039	0.1259695098947638	0.933659895252143	0.202251371422833	-0.2151575701343605	-0.2411665140441867	-0.2955759733261223	0.2399864589729673	0.2399864589729692	0.1017397740446173	0.167079454738723	0.09163085250442329	0.0807243472997994	-0.09020259403500672	-0.07923944648292142	-0.03914186143759345	0.4331359610958939	-0.009238636867501359	0.0927786521751835	-0.2525589076736278	0.4320977962721055	0.4320977962721056	-0.09355679573956732	0.01641297261667059	0.1124186217911244	0.02151392983492063	0.1028973581427966	-0.06190330476158683	0.0007629569481710638	-0.2356226102954408	0.1079101990427747	-0.05265994300461985	-0.02446665192949459	-29.75445034725372	-9.508754534626139	-20.04540599945062	-1.510622069979664	4.270461914037551	-603.6275099268777	61.16398955035503	-2.259966289297543	-1.843660209286598	-0.9927799889189808	10.38230985328245	-0.2665823597765694	2.180727775533914	-5.642117477663342	10.29436674041673	10.29436674041645	-2.099804529223251	0.4090546462190259	2.69652974652046	0.4626738587332372	6.615744896052764e-08	-5.131501827124205e-08	-4.882274187310575e-07	1.543648710787355e-07	9.002098461959615e-08	-4.292777457303163e-07	-2.702810040388472e-07
0.05	-0.002237973429952955	0.1250863578048323	0.933219531127371	0.2070877356869966	-0.2152622899823497	-0.2401301468088177	-0.298384975119926	0.2448115716300375	0.2448115716300354	0.1007004361278138	0.1672609452255509	0.09288700946216588	0.08096301324928402	-0.1114468485084593	-0.09727346889815863	-0.04895435456952245	0.5336087644632025	-0.01170241672757515	0.1143800792870968	-0.3088196992842865	0.532408462123736	0.5324084621237376	-0.1141358744224422	0.01982289657358358	0.138687215790986	0.02618875912267548	0.09731123546416993	-0.06020999014637857	0.001072799564705188	-0.2321326746300928	0.1036327005651886	-0.05087885942706271	-0.01983097196619059	-29.80491158104983	-10.67756814722551	-19.43626780058516	-1.653727291676568	4.2573171298206	-602.6084412534901	61.28465691039259	-2.041568141713272	-1.765629745206062	-0.9790796059761044	9.800547269908899	-0.2358703503461783	2.13268401272305	-5.554797232132768	9.821962313864356	9.821962313864795	-2.010783347071127	0.2976625234767694	2.573198122196886	0.4652551277766104	6.095427040257827e-08	-6.71307333542709e-08	-4.653818571267718e-07	6.652296177973496e-08	9.872707420292277e-08	-5.346491099419771e-07	-1.986282052934175e-07
0.06	-0.00345614840453695	0.1240263941932356	0.93268032294515	0.2129129843231216	-0.2153915665391843	-0.2388811985355898	-0.3017439322757115	0.2506243001068864	0.2506243001068879	0.0994605426623336	0.1674746752025654	0.09440208713900219	0.0812475010244422	-0.132087627595649	-0.1146017508159709	-0.05891067292738751	0.6309128354886671	-0.01414997863658684	0.1352948597471297	-0.3625499800695587	0.629620960228491	0.6296209602284957	-0.1336679054753776	0.02286087065246879	0.1642027656099612	0.03067829496962985	0.09172511278556883	-0.05851667553116355	0.00138264218128276	-0.2286427389647402	0.09935520208760522	-0.04909777584949707	-0.01519529200286837	-29.86173080105154	-11.7734257256669	-18.82718173206402	-1.782172979715849	4.242402904757022	-600.4467600742388	61.21069851028977	-2.139271212044839	-1.702512109801679	-1.021545034106187	9.748563384913599	-0.2633387695641591	2.043398445157824	-5.136015312585981	9.674733191041653	9.674733191041707	-1.890395003235346	0.3346646706134794	2.545920910343114	0.4256151705731135	5.548228537856804e-08	-8.287997925473771e-08	-4.412977116770771e-07	-2.314520875830617e-08	1.071868137990899e-07	-6.38635933281205e-07	-1.252893692644572e-07
